<!DOCTYPE svg PUBLIC "-//W3C//DTD SVG 1.1//EN" "http://www.w3.org/Graphics/SVG/1.1/DTD/svg11.dtd">
<!-- Uploaded to: SVG Repo, www.svgrepo.com, Transformed by: SVG Repo Mixer Tools -->
<svg width="800px" height="800px" viewBox="0 0 32 32" xmlns="http://www.w3.org/2000/svg" fill="#000000">
<g id="SVGRepo_bgCarrier" stroke-width="0"/>
<g id="SVGRepo_tracerCarrier" stroke-linecap="round" stroke-linejoin="round"/>
<g id="SVGRepo_iconCarrier"> <defs> <style>.cls-1{fill:rgb(146, 127, 191);}</style> </defs> <title/> <g data-name="Medic Statistic" id="Medic_Statistic"> <polygon class="cls-1" points="25 6 25 28 7 28 7 27 22 27 23 26 23 6 25 6"/> <path d="M26,4H23V3L22,2H10L9,3V4H6L5,5V29l1,1H26l1-1V5ZM11,4H21V6H11V4ZM25,28H7V6H9V7l1,1H22l1-1V6h2Z"/> <polygon points="19.11 17.55 18 19.76 13.89 11.55 12.11 11.55 9.38 17 8 17 8 19 10 19 10.89 18.45 13 14.24 17.11 22.45 18.89 22.45 20.62 19 24 19 24 17 20 17 19.11 17.55"/> </g> </g>
</svg>