<!DOCTYPE svg PUBLIC "-//W3C//DTD SVG 1.1//EN" "http://www.w3.org/Graphics/SVG/1.1/DTD/svg11.dtd">
<!-- Uploaded to: SVG Repo, www.svgrepo.com, Transformed by: SVG Repo Mixer Tools -->
<svg fill="#000000" width="800px" height="800px" viewBox="0 0 24 24" id="discord" data-name="Line Color" xmlns="http://www.w3.org/2000/svg" class="icon line-color">
<g id="SVGRepo_bgCarrier" stroke-width="0"/>
<g id="SVGRepo_tracerCarrier" stroke-linecap="round" stroke-linejoin="round"/>
<g id="SVGRepo_iconCarrier">
<path id="secondary-upstroke" d="M15,10h.1m-6,0H9" style="fill: none; stroke: rgb(146, 127, 191); stroke-linecap: round; stroke-linejoin: round; stroke-width: 2;"/>
<path id="primary" d="M9,15.77,8,19a7.25,7.25,0,0,1-5-2.33A30,30,0,0,1,4.83,6.6,1,1,0,0,1,5.43,6,23.65,23.65,0,0,1,12,5a23.65,23.65,0,0,1,6.57,1,1,1,0,0,1,.6.59A30,30,0,0,1,21,16.67,7.25,7.25,0,0,1,16,19l-1-3.23" style="fill: none; stroke: #000000; stroke-linecap: round; stroke-linejoin: round; stroke-width: 2;"/>
<path id="primary-2" data-name="primary" d="M7,15a13.38,13.38,0,0,0,5,1,13.38,13.38,0,0,0,5-1" style="fill: none; stroke: #000000; stroke-linecap: round; stroke-linejoin: round; stroke-width: 2;"/>
</g>
</svg>